<svg width="1700" height="320" viewBox="0 0 1700 320" fill="none" xmlns="http://www.w3.org/2000/svg">
<g clip-path="url(#clip0_54_1049)">
<path d="M1088.49 9.39999H1050.87L937.922 122.35L824.976 9.39999H787.327V47.05L900.273 160L787.327 272.95V310.6H824.976L937.922 197.65L1050.87 310.6H1088.49V272.95L975.571 160L1088.49 47.05V9.39999Z" fill="white"/>
<path d="M448.537 9.39999H395.288V310.575H448.537V9.39999Z" fill="white"/>
<path d="M0 310.6H376.464L188.219 9.39999L0 310.6ZM96.0472 257.35L188.219 109.875L280.392 257.35H96.0472Z" fill="white"/>
<path d="M627.332 0C538.959 0 467.336 71.625 467.336 160C467.336 248.375 538.959 320 627.332 320C715.704 320 787.327 248.375 787.327 160C787.327 71.625 715.704 0 627.332 0ZM627.332 266.75C568.458 266.75 520.585 218.85 520.585 160C520.585 101.15 568.483 53.25 627.332 53.25C686.18 53.25 734.078 101.15 734.078 160C734.078 218.85 686.18 266.75 627.332 266.75Z" fill="white"/>
<path d="M1252.49 160.25C1249.29 157.85 1245.66 155.85 1241.61 154.25C1237.56 152.65 1233.39 151.275 1229.14 150.1C1224.86 148.925 1220.71 147.85 1216.66 146.9C1212.61 145.95 1208.96 144.85 1205.71 143.625C1202.46 142.4 1199.89 140.95 1198.04 139.3C1196.16 137.65 1195.24 135.55 1195.24 132.975C1195.24 130.725 1196.06 128.8 1197.71 127.125C1199.36 125.475 1201.76 124.225 1204.91 123.375C1208.06 122.525 1211.86 122.1 1216.36 122.1C1220.51 122.1 1224.14 122.7 1227.24 123.85C1230.34 125.025 1232.74 126.625 1234.44 128.65C1236.14 130.675 1236.99 133.125 1236.99 136V137.275H1260.19V135.35C1260.19 129.8 1259.04 125 1256.74 120.95C1254.44 116.9 1251.26 113.55 1247.21 110.875C1243.16 108.2 1238.46 106.25 1233.14 105.025C1227.81 103.8 1222.14 103.175 1216.19 103.175C1209.79 103.175 1203.86 103.8 1198.44 105.025C1192.99 106.25 1188.19 108.15 1184.04 110.7C1179.89 113.25 1176.64 116.525 1174.37 120.45C1172.07 124.4 1170.92 129.1 1170.92 134.525C1170.92 139.65 1171.87 144.025 1173.79 147.65C1175.72 151.275 1178.27 154.275 1181.47 156.6C1184.67 158.95 1188.29 160.95 1192.34 162.6C1196.39 164.25 1200.56 165.65 1204.81 166.75C1209.09 167.875 1213.24 168.975 1217.29 170.025C1221.34 171.1 1224.99 172.275 1228.24 173.55C1231.49 174.825 1234.04 176.375 1235.91 178.2C1237.79 180.025 1238.71 182.35 1238.71 185.25C1238.71 186.85 1238.41 188.3 1237.84 189.575C1237.26 190.85 1236.34 191.975 1235.11 192.925C1233.89 193.875 1232.34 194.7 1230.46 195.4C1228.59 196.1 1226.46 196.625 1224.06 197C1221.66 197.375 1218.91 197.55 1215.81 197.55C1211.01 197.55 1206.79 196.975 1203.16 195.8C1199.54 194.625 1196.79 192.875 1194.91 190.525C1193.04 188.175 1192.11 185.3 1192.11 181.875V180.425C1192.11 179.9 1192.16 179.475 1192.26 179.15H1168.59C1168.49 179.475 1168.44 179.925 1168.44 180.5V182.175C1168.44 188.35 1169.69 193.625 1172.19 197.925C1174.69 202.25 1178.17 205.825 1182.59 208.65C1187.02 211.475 1192.11 213.525 1197.86 214.8C1203.61 216.075 1209.71 216.725 1216.11 216.725C1225.19 216.725 1233.24 215.55 1240.26 213.2C1247.31 210.85 1252.84 207.125 1256.91 202C1260.96 196.875 1262.99 190.1 1262.99 181.675C1262.99 176.775 1262.04 172.55 1260.11 169.025C1258.19 165.5 1255.64 162.55 1252.44 160.15L1252.49 160.25Z" fill="white"/>
<path d="M1372.01 192.8C1376.91 184.275 1379.36 173.325 1379.36 160C1379.36 146.675 1377.11 136.45 1372.63 128.075C1368.16 119.7 1361.73 113.45 1353.36 109.35C1344.99 105.25 1334.89 103.2 1323.04 103.2C1311.19 103.2 1301.39 105.25 1292.96 109.35C1284.54 113.45 1278.09 119.7 1273.61 128.075C1269.14 136.45 1266.89 147.1 1266.89 160C1266.89 172.9 1269.11 183.1 1273.54 191.525C1277.96 199.95 1284.31 206.275 1292.59 210.475C1300.86 214.7 1310.69 216.8 1322.11 216.8C1322.86 216.8 1323.66 216.775 1324.51 216.725C1325.36 216.675 1326.16 216.6 1326.91 216.475L1344.84 235.675H1375.88L1351.24 211.675C1360.18 207.625 1367.13 201.325 1372.03 192.8H1372.01ZM1354.89 162.55C1354.89 168.1 1354.19 173.025 1352.81 177.35C1351.41 181.675 1349.39 185.325 1346.74 188.3C1344.06 191.3 1340.76 193.525 1336.81 195.025C1332.86 196.525 1328.29 197.275 1323.06 197.275C1317.84 197.275 1313.41 196.525 1309.46 195.025C1305.51 193.525 1302.21 191.3 1299.54 188.3C1296.86 185.325 1294.86 181.65 1293.54 177.35C1292.21 173.025 1291.54 168.1 1291.54 162.55V157.6C1291.54 151.95 1292.21 146.925 1293.54 142.55C1294.86 138.175 1296.86 134.525 1299.54 131.6C1302.21 128.675 1305.51 126.45 1309.46 124.95C1313.41 123.45 1317.94 122.7 1323.06 122.7C1328.19 122.7 1332.86 123.45 1336.81 124.95C1340.76 126.45 1344.06 128.65 1346.74 131.6C1349.41 134.525 1351.44 138.175 1352.81 142.55C1354.19 146.925 1354.89 151.925 1354.89 157.6V162.55Z" fill="white"/>
<path d="M1484.33 105.125H1460.33V172.8C1460.33 180.7 1458.23 186.75 1454.01 190.95C1449.78 195.175 1443.78 197.275 1436.01 197.275C1428.23 197.275 1422.26 195.175 1418.08 190.95C1413.93 186.75 1411.83 180.675 1411.83 172.8V105.125H1387.83V173.45C1387.83 183.05 1389.76 191.075 1393.58 197.525C1397.43 203.975 1402.93 208.8 1410.13 212C1417.33 215.2 1425.93 216.8 1435.98 216.8C1446.03 216.8 1454.78 215.2 1461.98 212C1469.18 208.8 1474.71 203.975 1478.53 197.525C1482.38 191.075 1484.28 183.05 1484.28 173.45V105.125H1484.33Z" fill="white"/>
<path d="M1526.56 105.125L1484.31 214.875H1508.96L1516.81 193.275H1564.65L1572.5 214.875H1598.25L1556 105.125H1526.56ZM1523.68 174.075L1533.43 147.025C1533.95 145.425 1534.65 143.375 1535.5 140.875C1536.35 138.375 1537.2 135.75 1538.05 133.025C1538.9 130.3 1539.6 127.925 1540.13 125.9H1541.08C1541.6 127.5 1542.18 129.3 1542.75 131.25C1543.33 133.225 1543.95 135.225 1544.6 137.25C1545.25 139.275 1545.85 141.125 1546.45 142.775C1547.03 144.425 1547.55 145.85 1547.98 147.025L1557.73 174.075H1523.66H1523.68Z" fill="white"/>
<path d="M1693.53 129.05C1689.2 121 1683.05 115 1675.05 111.05C1667.05 107.1 1657.35 105.125 1645.93 105.125H1601.13V214.875H1645.93C1657.33 214.875 1667.05 212.9 1675.05 208.95C1683.05 205 1689.2 198.975 1693.53 190.875C1697.85 182.775 1700 172.475 1700 160C1700 147.525 1697.85 137.1 1693.53 129.05ZM1675.35 162.4C1675.35 167.85 1674.7 172.625 1673.43 176.725C1672.15 180.825 1670.28 184.25 1667.83 186.975C1665.38 189.7 1662.28 191.75 1658.55 193.125C1654.83 194.5 1650.55 195.2 1645.75 195.2H1624.95V124.65H1645.75C1650.55 124.65 1654.83 125.375 1658.55 126.8C1662.28 128.25 1665.38 130.325 1667.83 133.05C1670.28 135.775 1672.15 139.175 1673.43 143.3C1674.7 147.425 1675.35 152.175 1675.35 157.625V162.425V162.4Z" fill="white"/>
</g>
<defs>
<clipPath id="clip0_54_1049">
<rect width="1700" height="320" fill="white"/>
</clipPath>
</defs>
</svg>
